<svg aria-hidden="true" style="width:0;height:0;position:absolute;overflow:hidden" xmlns="http://www.w3.org/2000/svg"><defs><symbol id="logo" viewBox="0 0 43 32"><path fill="#ffe550" style="fill:var(--color1,#ffe550)" d="M15.164 6.456c1.011-1.982 3.838-1.982 4.85 0l1.28 2.51a2.724 2.724 0 0 0 1.998 1.453l2.774.441c2.197.35 3.072 3.049 1.498 4.625l-1.979 1.983a2.723 2.723 0 0 0-.762 2.372l-.002-.016.437 2.773c.347 2.2-1.941 3.868-3.923 2.859l-2.512-1.278c-.359-.186-.783-.296-1.233-.296s-.874.109-1.248.303l.015-.007-2.512 1.278c-1.982 1.009-4.27-.659-3.923-2.859l.437-2.773a2.725 2.725 0 0 0-.765-2.356l-1.979-1.983c-1.573-1.576-.699-4.276 1.498-4.625l2.774-.441a2.726 2.726 0 0 0 1.998-1.453l1.28-2.51z"/><path fill="#2c2c2c" style="fill:var(--color2,#2c2c2c)" d="m2.13 20.357-.021.005a31 31 0 0 1-.011.9c-.003.524-.004.868-.002 1.032 0 .157-.003.285-.01.384l.001.336a2.28 2.28 0 0 1-.019.296l-.018.206c-.014.13-.042.201-.085.211-.092.022-.235-.049-.431-.212-.197-.17-.311-.319-.341-.447s-.038-1.06-.024-2.798c.021-1.74-.025-2.884-.14-3.432a.418.418 0 0 1 .014-.272c.036-.165.219-.321.55-.467.338-.147.843-.3 1.515-.459.678-.161 1.217-.251 1.615-.27.405-.021.623.032.653.159.02.085-.026.159-.138.223a4.33 4.33 0 0 1-.265.145l-.033.015-.348.138c-.145.049-.28.096-.403.14-.126.037-.288.091-.488.16a18.33 18.33 0 0 0-.761.269l.225-.075c-.166.054-.39.133-.672.237s-.464.169-.547.197c.012.02.023.051.033.093.079.333.122 1.13.129 2.392a10.87 10.87 0 0 0 1.402-.365c.499-.163.805-.258.918-.284.269-.064.416-.039.443.075.052.22-.212.476-.792.77a8.682 8.682 0 0 1-1.951.697zm6.921-1.951a2.013 2.013 0 0 0-.277-.652c-.13-.201-.28-.334-.452-.398-.456.25-.787.728-.993 1.435-.201.698-.236 1.32-.107 1.865s.344.853.644.924c.485-.22.834-.668 1.047-1.347.218-.687.264-1.296.139-1.827zm-2.766.755c.117-.611.331-1.14.643-1.588.317-.456.685-.734 1.102-.833.424-.1.82-.003 1.188.291.366.287.611.689.733 1.206.121.51.121 1.063.001 1.66a3.784 3.784 0 0 1-.714 1.571c-.349.449-.767.731-1.255.846-.36.085-.7-.01-1.019-.286s-.539-.669-.659-1.179c-.122-.517-.129-1.08-.019-1.689zm7.569-1.892a2.013 2.013 0 0 0-.277-.652c-.13-.201-.28-.334-.452-.398-.456.25-.787.728-.993 1.435-.201.698-.236 1.32-.107 1.865s.344.853.644.924c.485-.219.834-.668 1.047-1.347.218-.687.264-1.296.139-1.827zm-2.765.756c.117-.611.331-1.14.643-1.588.317-.456.685-.734 1.102-.833.424-.1.82-.003 1.188.291.366.287.611.689.733 1.206.121.51.121 1.063.001 1.66a3.784 3.784 0 0 1-.714 1.571c-.349.449-.767.731-1.255.846-.36.085-.7-.01-1.019-.286s-.539-.669-.659-1.179c-.122-.517-.129-1.08-.019-1.689zm7.774-6.988c.113-.027.276.047.489.221.218.165.349.34.393.524s.079.729.107 1.635c.026.899.031 1.836.016 2.811-.02 2.188-.111 3.301-.274 3.34-.099.023-.223-.011-.371-.103-.143-.101-.226-.197-.248-.289s-.041-.282-.056-.57c-.525.872-1.046 1.369-1.562 1.491-.311.074-.627-.001-.949-.224-.314-.225-.508-.489-.58-.794-.104-.439-.11-.987-.019-1.644.096-.666.308-1.299.636-1.9s.743-.961 1.245-1.08.923.099 1.263.655c.005-1.586-.077-2.819-.248-3.699-.05-.212.002-.337.158-.374zm.068 5.491c-.09-.382-.234-.689-.43-.919-.189-.232-.376-.326-.559-.283-.304.072-.57.333-.8.784s-.382.943-.457 1.476c-.07.525-.063.964.021 1.319.03.127.1.219.211.275s.229.069.356.039c.276-.065.6-.351.972-.858.38-.509.612-1.057.697-1.645l.002-.135-.013-.053zm6.768-.636c.137.581-.009 1.131-.438 1.651-.431.513-.986.85-1.664 1.011-.671.159-1.267.117-1.788-.127-.522-.25-.82-.531-.893-.843-.05-.212-.012-.334.115-.364.113-.027.376.091.788.352.156.09.352.163.589.22.244.054.486.053.727-.004a2.373 2.373 0 0 0 1.224-.693c.328-.347.457-.669.387-.966-.045-.191-.23-.405-.555-.643s-.674-.45-1.047-.638c-.4-.215-.74-.435-1.062-.677l.021.015c-.326-.244-.511-.455-.552-.632s-.051-.373-.027-.588c.024-.215.067-.379.13-.491.204-.37.565-.751 1.084-1.143.526-.394.987-.637 1.383-.731.205-.048.394-.022.567.079s.277.226.313.375c.017.071-.044.145-.182.223s-.351.188-.638.33a5.259 5.259 0 0 0-.74.422c-.739.504-1.074.901-1.006 1.191.037.156.553.493 1.549 1.013.383.201.746.455 1.087.763.347.299.556.598.626.895zm2.435.534c.032.135.125.183.281.147.269-.064.576-.215.923-.454.352-.248.549-.377.591-.387.127-.03.207.022.239.157.049.205-.107.493-.468.862-.353.368-.703.593-1.049.674-.339.08-.644.055-.913-.076-.271-.138-.43-.306-.477-.504s-.064-.46-.051-.784c.011-.332.035-.767.072-1.307.042-.548.07-1 .083-1.354-.314.156-.527.248-.64.275s-.24-.003-.379-.09c-.134-.095-.214-.196-.239-.302-.04-.17.381-.441 1.263-.815a7.73 7.73 0 0 0-.178-1.607c-.05-.212-.005-.335.137-.369.12-.028.287.014.501.128.212.107.34.256.386.447s.065.542.058 1.052c.394-.131.712-.224.952-.281.424-.1.658-.058.701.126.025.106-.071.222-.287.348-.209.124-.664.348-1.364.67-.016.594-.052 1.28-.107 2.055-.057.769-.067 1.231-.03 1.387zm4.737-5.562c.318-.075.65.018.995.28.344.255.547.514.609.776.06.255.034.538-.079.849.11.086.174.168.193.246.047.198.081.549.103 1.052.029.502.051.829.065.983a3.387 3.387 0 0 1 .05.638c.014.184-.029.287-.128.311-.127.03-.259-.055-.396-.254a3.224 3.224 0 0 1-.344-.838c-.44.949-.928 1.487-1.465 1.614-.325.077-.679.015-1.063-.186-.378-.21-.602-.463-.672-.761-.1-.425-.069-.986.095-1.682.162-.704.432-1.358.812-1.964s.788-.96 1.226-1.064zm.93 1.754c-.156-.659-.364-.957-.626-.895-.276.065-.55.34-.824.823-.275.476-.482.993-.619 1.548s-.171.979-.103 1.269a.37.37 0 0 0 .219.262.603.603 0 0 0 .375.023c.332-.079.654-.39.965-.935.31-.552.47-1.169.48-1.852-.004-.111.041-.189.135-.234l-.002-.011z"/><path fill="#bbf330" style="fill:var(--color3,#bbf330)" d="M31.791 19.973a.917.917 0 0 0-.642.602c-1.907 5.65-7.248 9.719-13.543 9.719a14.241 14.241 0 0 1-9.847-3.935.912.912 0 0 0-.846-.232c-.639.158-.881.934-.407 1.392a15.935 15.935 0 0 0 11.099 4.48c7.082 0 13.089-4.605 15.192-10.986.206-.626-.368-1.199-1.007-1.041zM2.881 14.15a.908.908 0 0 0 .666-.725c1.212-6.664 7.044-11.72 14.059-11.72 4.562 0 8.623 2.137 11.239 5.464.22.279.579.414.924.328.584-.144.848-.825.479-1.301-2.926-3.771-7.5-6.198-12.641-6.198-7.886 0-14.439 5.711-15.753 13.225-.104.592.445 1.07 1.028.926zm38.772-8.819c-3.779 7.241-5.439 2.465-10.759 5.271.532-8.406 6.167-3.291 10.759-5.271z"/></symbol><symbol id="error" viewBox="0 0 32 32"><path d="m16 2.899 13.409 26.726H2.59L15.999 2.899zM16 0c-.69 0-1.379.465-1.903 1.395L.438 28.617C-.608 30.477.282 32 2.416 32h27.166c2.134 0 3.025-1.522 1.978-3.383L17.901 1.395C17.378.465 16.688 0 15.998 0z"/><path d="M18 26a2 2 0 1 1-3.999.001A2 2 0 0 1 18 26zM16 22a2 2 0 0 1-2-2v-6a2 2 0 1 1 4 0v6a2 2 0 0 1-2 2z"/></symbol></defs></svg>